<?xml version="1.0" standalone="no"?>
<!DOCTYPE svg PUBLIC "-//W3C//DTD SVG 20010904//EN"
 "http://www.w3.org/TR/2001/REC-SVG-20010904/DTD/svg10.dtd">
<svg version="1.0" xmlns="http://www.w3.org/2000/svg"
 width="1120.000000pt" height="1120.000000pt" viewBox="0 0 1120.000000 1120.000000"
 preserveAspectRatio="xMidYMid meet">
<metadata>
Created by potrace 1.11, written by Peter Selinger 2001-2013
</metadata>
<g transform="translate(0.000000,1120.000000) scale(0.100000,-0.100000)"
fill="#000000" stroke="none">
<path d="M3500 10850 l0 -350 -350 0 -350 0 0 -700 0 -700 -350 0 -350 0 0
-1050 0 -1050 700 0 700 0 0 -350 0 -350 -350 0 -350 0 0 -350 0 -350 -350 0
-350 0 0 -350 0 -350 -350 0 -350 0 0 -1400 0 -1400 700 0 700 0 0 -350 0
-350 -350 0 -350 0 0 -350 0 -350 -350 0 -350 0 0 -350 0 -350 1400 0 1400 0
0 700 0 700 350 0 350 0 0 350 0 350 700 0 700 0 0 -350 0 -350 350 0 350 0 0
-700 0 -700 1400 0 1400 0 0 350 0 350 -350 0 -350 0 0 350 0 350 -350 0 -350
0 0 350 0 350 700 0 700 0 0 1400 0 1400 -350 0 -350 0 0 350 0 350 -1050 0
-1050 0 0 350 0 350 700 0 700 0 0 350 0 350 350 0 350 0 0 350 0 350 350 0
350 0 0 350 0 350 -350 0 -350 0 0 350 0 350 -700 0 -700 0 0 350 0 350 700 0
700 0 0 350 0 350 -1050 0 -1050 0 0 350 0 350 -1750 0 -1750 0 0 -350z"/>
</g>
</svg>
